<svg width="500" height="300" viewBox="0 0 500 300" xmlns="http://www.w3.org/2000/svg">
  <!-- Background -->
  <rect width="500" height="300" fill="#f6f8fa" rx="8" ry="8"/>
  
  <!-- Git timeline -->
  <line x1="80" y1="50" x2="80" y2="250" stroke="#e1e4e8" stroke-width="6" stroke-linecap="round"/>
  <line x1="80" y1="100" x2="420" y2="100" stroke="#e1e4e8" stroke-width="6" stroke-linecap="round"/>
  <line x1="420" y1="100" x2="420" y2="200" stroke="#e1e4e8" stroke-width="6" stroke-linecap="round"/>
  <line x1="420" y1="200" x2="80" y2="200" stroke="#e1e4e8" stroke-width="6" stroke-linecap="round"/>
  
  <!-- Commit nodes -->
  <circle cx="80" cy="50" r="12" fill="#0366d6"/>
  <circle cx="80" cy="100" r="12" fill="#0366d6"/>
  <circle cx="80" cy="150" r="12" fill="#0366d6"/>
  <circle cx="80" cy="200" r="12" fill="#0366d6"/>
  <circle cx="80" cy="250" r="12" fill="#0366d6"/>
  <circle cx="200" cy="100" r="12" fill="#0366d6"/>
  <circle cx="320" cy="100" r="12" fill="#0366d6"/>
  <circle cx="420" cy="100" r="12" fill="#0366d6"/>
  <circle cx="420" cy="150" r="12" fill="#0366d6"/>
  <circle cx="420" cy="200" r="12" fill="#0366d6"/>
  <circle cx="200" cy="200" r="12" fill="#0366d6"/>
  
  <!-- Branch labels -->
  <rect x="30" y="20" width="40" height="20" rx="4" ry="4" fill="#0366d6"/>
  <text x="50" y="35" font-family="Arial" font-size="12" fill="white" text-anchor="middle">main</text>
  
  <rect x="370" y="70" width="60" height="20" rx="4" ry="4" fill="#6f42c1"/>
  <text x="400" y="85" font-family="Arial" font-size="12" fill="white" text-anchor="middle">feature</text>
  
  <rect x="220" y="230" width="60" height="20" rx="4" ry="4" fill="#2ea44f"/>
  <text x="250" y="245" font-family="Arial" font-size="12" fill="white" text-anchor="middle">merged</text>
  
  <!-- Arrows -->
  <polygon points="85,100 95,95 95,105" fill="#0366d6"/>
  <polygon points="420,105 415,115 425,115" fill="#0366d6"/>
  <polygon points="415,200 405,195 405,205" fill="#0366d6"/>
  <polygon points="80,195 70,185 90,185" fill="#0366d6"/>
</svg>