<?xml version="1.0" encoding="UTF-8"?>
<svg width="420" height="220" viewBox="0 0 420 220" fill="none" xmlns="http://www.w3.org/2000/svg">
  <rect width="420" height="220" rx="24" fill="#F6F8FA"/>
  <!-- Laptop base -->
  <rect x="90" y="120" width="240" height="48" rx="8" fill="#E1E4E8"/>
  <rect x="110" y="60" width="200" height="70" rx="10" fill="#fff" stroke="#D1D5DA" stroke-width="2"/>
  <!-- Screen content: branch -->
  <circle cx="150" cy="90" r="8" fill="#0366D6"/>
  <circle cx="200" cy="90" r="8" fill="#28A745"/>
  <circle cx="250" cy="90" r="8" fill="#6F42C1"/>
  <rect x="158" y="88" width="34" height="4" rx="2" fill="#BFDADC"/>
  <rect x="208" y="88" width="34" height="4" rx="2" fill="#BFDADC"/>
  <!-- GitHub logo (cat face) -->
  <g>
    <ellipse cx="320" cy="100" rx="18" ry="16" fill="#24292F"/>
    <ellipse cx="312" cy="98" rx="2.5" ry="3.5" fill="#fff"/>
    <ellipse cx="328" cy="98" rx="2.5" ry="3.5" fill="#fff"/>
    <ellipse cx="320" cy="110" rx="6" ry="3" fill="#fff"/>
    <ellipse cx="320" cy="110" rx="3" ry="1.5" fill="#24292F"/>
  </g>
  <!-- Decorative branch lines -->
  <path d="M 150 90 Q 175 60 200 90 Q 225 120 250 90" stroke="#D1D5DA" stroke-width="2" fill="none"/>
  <!-- Title text -->
  <text x="50%" y="200" text-anchor="middle" fill="#24292F" font-size="20" font-family="Segoe UI, Arial, sans-serif" font-weight="bold">Git & GitHub Classroom</text>
</svg>
